<mxfile host="app.diagrams.net" modified="2023-10-02T03:37:59.083Z" agent="Mozilla/5.0 (X11; Ubuntu; Linux x86_64; rv:109.0) Gecko/20100101 Firefox/117.0" etag="TgqA7cOJs_2iMipttQee" version="22.0.0" type="github">
  <diagram name="Page-1" id="2YBvvXClWsGukQMizWep">
    <mxGraphModel dx="1376" dy="795" grid="1" gridSize="10" guides="1" tooltips="1" connect="1" arrows="1" fold="1" page="1" pageScale="1" pageWidth="1100" pageHeight="850" math="0" shadow="0">
      <root>
        <mxCell id="0" />
        <mxCell id="1" parent="0" />
        <mxCell id="JDQupVAsGFA57i-t1DUa-37" value="" style="group" vertex="1" connectable="0" parent="1">
          <mxGeometry x="10" y="1384" width="1010" height="190" as="geometry" />
        </mxCell>
        <mxCell id="JDQupVAsGFA57i-t1DUa-35" value="Opt" style="strokeColor=default;fillColor=inherit;gradientColor=inherit;strokeWidth=1;shadow=0;dashed=0;align=center;html=1;shape=mxgraph.mockup.containers.rrect;rSize=0;fontSize=17;fontColor=#666666;gradientColor=none;" vertex="1" parent="JDQupVAsGFA57i-t1DUa-37">
          <mxGeometry x="10" width="60" height="25" as="geometry">
            <mxPoint x="10" as="offset" />
          </mxGeometry>
        </mxCell>
        <mxCell id="JDQupVAsGFA57i-t1DUa-33" value="" style="strokeWidth=1;shadow=0;dashed=0;align=center;html=1;shape=mxgraph.mockup.containers.marginRect2;rectMarginTop=32;strokeColor=#666666;gradientColor=none;whiteSpace=wrap;container=0;" vertex="1" parent="JDQupVAsGFA57i-t1DUa-37">
          <mxGeometry width="1010" height="190" as="geometry" />
        </mxCell>
        <mxCell id="JDQupVAsGFA57i-t1DUa-36" value="" style="strokeWidth=1;shadow=0;dashed=0;align=center;html=1;shape=mxgraph.mockup.containers.topButton;rSize=5;strokeColor=#008cff;fillColor=#008cff;gradientColor=none;resizeWidth=1;movable=0;deletable=1;" vertex="1" parent="JDQupVAsGFA57i-t1DUa-37">
          <mxGeometry y="25" width="1009.9999999999999" height="7" as="geometry">
            <mxPoint y="25" as="offset" />
          </mxGeometry>
        </mxCell>
        <mxCell id="JDQupVAsGFA57i-t1DUa-25" value="" style="group" vertex="1" connectable="0" parent="1">
          <mxGeometry x="10" y="1130" width="1010" height="245" as="geometry" />
        </mxCell>
        <mxCell id="JDQupVAsGFA57i-t1DUa-15" value="" style="html=1;verticalAlign=bottom;endArrow=none;edgeStyle=elbowEdgeStyle;elbow=horizontal;curved=0;rounded=0;startArrow=none;startFill=0;endFill=0;dashed=1;" edge="1" parent="JDQupVAsGFA57i-t1DUa-25">
          <mxGeometry x="0.0323" relative="1" as="geometry">
            <mxPoint x="5" y="244" as="sourcePoint" />
            <Array as="points">
              <mxPoint x="90" y="245" />
            </Array>
            <mxPoint x="1004" y="244" as="targetPoint" />
            <mxPoint as="offset" />
          </mxGeometry>
        </mxCell>
        <mxCell id="JDQupVAsGFA57i-t1DUa-13" value="" style="strokeWidth=1;shadow=0;dashed=0;align=center;html=1;shape=mxgraph.mockup.containers.marginRect2;rectMarginTop=32;strokeColor=#666666;gradientColor=none;whiteSpace=wrap;container=0;" vertex="1" parent="JDQupVAsGFA57i-t1DUa-25">
          <mxGeometry width="1010" height="245" as="geometry" />
        </mxCell>
        <mxCell id="JDQupVAsGFA57i-t1DUa-21" value="Opt" style="strokeColor=default;fillColor=inherit;gradientColor=inherit;strokeWidth=1;shadow=0;dashed=0;align=center;html=1;shape=mxgraph.mockup.containers.rrect;rSize=0;fontSize=17;fontColor=#666666;gradientColor=none;" vertex="1" parent="JDQupVAsGFA57i-t1DUa-25">
          <mxGeometry x="10" width="60" height="25" as="geometry">
            <mxPoint x="10" as="offset" />
          </mxGeometry>
        </mxCell>
        <mxCell id="JDQupVAsGFA57i-t1DUa-22" value="" style="strokeWidth=1;shadow=0;dashed=0;align=center;html=1;shape=mxgraph.mockup.containers.topButton;rSize=5;strokeColor=#008cff;fillColor=#008cff;gradientColor=none;resizeWidth=1;movable=0;deletable=1;" vertex="1" parent="JDQupVAsGFA57i-t1DUa-25">
          <mxGeometry y="25" width="1009.9999999999999" height="7" as="geometry">
            <mxPoint y="25" as="offset" />
          </mxGeometry>
        </mxCell>
        <mxCell id="JDQupVAsGFA57i-t1DUa-27" value="" style="group" vertex="1" connectable="0" parent="1">
          <mxGeometry x="10" y="848" width="1010" height="245" as="geometry" />
        </mxCell>
        <mxCell id="JDQupVAsGFA57i-t1DUa-29" value="" style="html=1;verticalAlign=bottom;endArrow=none;edgeStyle=elbowEdgeStyle;elbow=horizontal;curved=0;rounded=0;startArrow=none;startFill=0;endFill=0;dashed=1;" edge="1" parent="JDQupVAsGFA57i-t1DUa-27">
          <mxGeometry x="0.0323" relative="1" as="geometry">
            <mxPoint x="5" y="244" as="sourcePoint" />
            <Array as="points">
              <mxPoint x="90" y="245" />
            </Array>
            <mxPoint x="1004" y="244" as="targetPoint" />
            <mxPoint as="offset" />
          </mxGeometry>
        </mxCell>
        <mxCell id="JDQupVAsGFA57i-t1DUa-28" value="" style="strokeWidth=1;shadow=0;dashed=0;align=center;html=1;shape=mxgraph.mockup.containers.marginRect2;rectMarginTop=32;strokeColor=#666666;gradientColor=none;whiteSpace=wrap;container=0;" vertex="1" parent="JDQupVAsGFA57i-t1DUa-27">
          <mxGeometry width="1010" height="245" as="geometry" />
        </mxCell>
        <mxCell id="JDQupVAsGFA57i-t1DUa-30" value="Opt" style="strokeColor=default;fillColor=inherit;gradientColor=inherit;strokeWidth=1;shadow=0;dashed=0;align=center;html=1;shape=mxgraph.mockup.containers.rrect;rSize=0;fontSize=17;fontColor=#666666;gradientColor=none;" vertex="1" parent="JDQupVAsGFA57i-t1DUa-27">
          <mxGeometry x="10" width="60" height="25" as="geometry">
            <mxPoint x="10" as="offset" />
          </mxGeometry>
        </mxCell>
        <mxCell id="JDQupVAsGFA57i-t1DUa-31" value="" style="strokeWidth=1;shadow=0;dashed=0;align=center;html=1;shape=mxgraph.mockup.containers.topButton;rSize=5;strokeColor=#008cff;fillColor=#008cff;gradientColor=none;resizeWidth=1;movable=0;deletable=1;" vertex="1" parent="JDQupVAsGFA57i-t1DUa-27">
          <mxGeometry y="25" width="1009.9999999999999" height="7" as="geometry">
            <mxPoint y="25" as="offset" />
          </mxGeometry>
        </mxCell>
        <mxCell id="JDQupVAsGFA57i-t1DUa-41" value="UC-04.2" style="text;html=1;strokeColor=none;fillColor=none;align=center;verticalAlign=middle;whiteSpace=wrap;rounded=0;" vertex="1" parent="JDQupVAsGFA57i-t1DUa-27">
          <mxGeometry x="10" y="202" width="60" height="30" as="geometry" />
        </mxCell>
        <mxCell id="2QtAlBOzLZGLUuP-KgHX-35" value="" style="strokeWidth=1;shadow=0;dashed=0;align=center;html=1;shape=mxgraph.mockup.containers.marginRect2;rectMarginTop=32;strokeColor=#666666;gradientColor=none;whiteSpace=wrap;container=0;" parent="1" vertex="1">
          <mxGeometry x="10" y="615" width="1010" height="225" as="geometry" />
        </mxCell>
        <mxCell id="2QtAlBOzLZGLUuP-KgHX-4" value="&lt;div style=&quot;font-size: 11px;&quot;&gt;&lt;font style=&quot;font-size: 11px;&quot;&gt;&amp;lt;&amp;lt;actor&amp;gt;&amp;gt;&lt;/font&gt;&lt;/div&gt;&lt;div style=&quot;font-size: 11px;&quot;&gt;&lt;font style=&quot;font-size: 11px;&quot;&gt;HealthServiceDB: Database&lt;font style=&quot;font-size: 11px;&quot;&gt;&lt;br&gt;&lt;/font&gt;&lt;/font&gt;&lt;/div&gt;" style="shape=umlLifeline;perimeter=lifelinePerimeter;whiteSpace=wrap;html=1;container=0;dropTarget=0;collapsible=0;recursiveResize=0;outlineConnect=0;portConstraint=eastwest;newEdgeStyle={&quot;edgeStyle&quot;:&quot;elbowEdgeStyle&quot;,&quot;elbow&quot;:&quot;vertical&quot;,&quot;curved&quot;:0,&quot;rounded&quot;:0};" parent="1" vertex="1">
          <mxGeometry x="883" y="270" width="110" height="1330" as="geometry" />
        </mxCell>
        <mxCell id="2QtAlBOzLZGLUuP-KgHX-71" value="" style="html=1;points=[];perimeter=orthogonalPerimeter;outlineConnect=0;targetShapes=umlLifeline;portConstraint=eastwest;newEdgeStyle={&quot;edgeStyle&quot;:&quot;elbowEdgeStyle&quot;,&quot;elbow&quot;:&quot;vertical&quot;,&quot;curved&quot;:0,&quot;rounded&quot;:0};" parent="2QtAlBOzLZGLUuP-KgHX-4" vertex="1">
          <mxGeometry x="50" y="734" width="10" height="30" as="geometry" />
        </mxCell>
        <mxCell id="2QtAlBOzLZGLUuP-KgHX-92" value="" style="html=1;points=[];perimeter=orthogonalPerimeter;outlineConnect=0;targetShapes=umlLifeline;portConstraint=eastwest;newEdgeStyle={&quot;edgeStyle&quot;:&quot;elbowEdgeStyle&quot;,&quot;elbow&quot;:&quot;vertical&quot;,&quot;curved&quot;:0,&quot;rounded&quot;:0};" parent="2QtAlBOzLZGLUuP-KgHX-4" vertex="1">
          <mxGeometry x="50" y="1010" width="10" height="30" as="geometry" />
        </mxCell>
        <mxCell id="2QtAlBOzLZGLUuP-KgHX-6" value="&lt;font style=&quot;font-size: 11px;&quot;&gt;&amp;lt;&amp;lt;actor&amp;gt;&amp;gt; Patient: PatientClass&lt;/font&gt;" style="shape=umlLifeline;perimeter=lifelinePerimeter;whiteSpace=wrap;html=1;container=0;dropTarget=0;collapsible=0;recursiveResize=0;outlineConnect=0;portConstraint=eastwest;newEdgeStyle={&quot;edgeStyle&quot;:&quot;elbowEdgeStyle&quot;,&quot;elbow&quot;:&quot;vertical&quot;,&quot;curved&quot;:0,&quot;rounded&quot;:0};" parent="1" vertex="1">
          <mxGeometry x="40" y="270" width="100" height="1330" as="geometry" />
        </mxCell>
        <mxCell id="2QtAlBOzLZGLUuP-KgHX-7" value="" style="html=1;points=[];perimeter=orthogonalPerimeter;outlineConnect=0;targetShapes=umlLifeline;portConstraint=eastwest;newEdgeStyle={&quot;edgeStyle&quot;:&quot;elbowEdgeStyle&quot;,&quot;elbow&quot;:&quot;vertical&quot;,&quot;curved&quot;:0,&quot;rounded&quot;:0};" parent="2QtAlBOzLZGLUuP-KgHX-6" vertex="1">
          <mxGeometry x="45" y="60" width="10" height="310" as="geometry" />
        </mxCell>
        <mxCell id="2QtAlBOzLZGLUuP-KgHX-51" value="" style="html=1;points=[];perimeter=orthogonalPerimeter;outlineConnect=0;targetShapes=umlLifeline;portConstraint=eastwest;newEdgeStyle={&quot;edgeStyle&quot;:&quot;elbowEdgeStyle&quot;,&quot;elbow&quot;:&quot;vertical&quot;,&quot;curved&quot;:0,&quot;rounded&quot;:0};" parent="2QtAlBOzLZGLUuP-KgHX-6" vertex="1">
          <mxGeometry x="45" y="416" width="10" height="40" as="geometry" />
        </mxCell>
        <mxCell id="2QtAlBOzLZGLUuP-KgHX-61" value="" style="html=1;points=[];perimeter=orthogonalPerimeter;outlineConnect=0;targetShapes=umlLifeline;portConstraint=eastwest;newEdgeStyle={&quot;edgeStyle&quot;:&quot;elbowEdgeStyle&quot;,&quot;elbow&quot;:&quot;vertical&quot;,&quot;curved&quot;:0,&quot;rounded&quot;:0};" parent="2QtAlBOzLZGLUuP-KgHX-6" vertex="1">
          <mxGeometry x="45" y="630" width="10" height="171" as="geometry" />
        </mxCell>
        <mxCell id="2QtAlBOzLZGLUuP-KgHX-27" value="" style="html=1;points=[];perimeter=orthogonalPerimeter;outlineConnect=0;targetShapes=umlLifeline;portConstraint=eastwest;newEdgeStyle={&quot;edgeStyle&quot;:&quot;elbowEdgeStyle&quot;,&quot;elbow&quot;:&quot;vertical&quot;,&quot;curved&quot;:0,&quot;rounded&quot;:0};" parent="2QtAlBOzLZGLUuP-KgHX-6" vertex="1">
          <mxGeometry x="45" y="1180" width="10" height="60" as="geometry" />
        </mxCell>
        <mxCell id="2QtAlBOzLZGLUuP-KgHX-97" value="" style="html=1;points=[];perimeter=orthogonalPerimeter;outlineConnect=0;targetShapes=umlLifeline;portConstraint=eastwest;newEdgeStyle={&quot;edgeStyle&quot;:&quot;elbowEdgeStyle&quot;,&quot;elbow&quot;:&quot;vertical&quot;,&quot;curved&quot;:0,&quot;rounded&quot;:0};" parent="2QtAlBOzLZGLUuP-KgHX-6" vertex="1">
          <mxGeometry x="45" y="903" width="10" height="171" as="geometry" />
        </mxCell>
        <mxCell id="2QtAlBOzLZGLUuP-KgHX-8" value="&lt;div&gt;LoginPage:&amp;nbsp;&lt;/div&gt;&lt;div&gt;PageUI&lt;/div&gt;" style="shape=umlLifeline;perimeter=lifelinePerimeter;whiteSpace=wrap;html=1;container=0;dropTarget=0;collapsible=0;recursiveResize=0;outlineConnect=0;portConstraint=eastwest;newEdgeStyle={&quot;edgeStyle&quot;:&quot;elbowEdgeStyle&quot;,&quot;elbow&quot;:&quot;vertical&quot;,&quot;curved&quot;:0,&quot;rounded&quot;:0};" parent="1" vertex="1">
          <mxGeometry x="240" y="270" width="100" height="1330" as="geometry" />
        </mxCell>
        <mxCell id="2QtAlBOzLZGLUuP-KgHX-102" value="" style="html=1;points=[];perimeter=orthogonalPerimeter;outlineConnect=0;targetShapes=umlLifeline;portConstraint=eastwest;newEdgeStyle={&quot;edgeStyle&quot;:&quot;elbowEdgeStyle&quot;,&quot;elbow&quot;:&quot;vertical&quot;,&quot;curved&quot;:0,&quot;rounded&quot;:0};" parent="2QtAlBOzLZGLUuP-KgHX-8" vertex="1">
          <mxGeometry x="45" y="120" width="10" height="60" as="geometry" />
        </mxCell>
        <mxCell id="2QtAlBOzLZGLUuP-KgHX-12" value="&lt;font style=&quot;font-size: 11px;&quot;&gt;NotificationSvc:&lt;br&gt;&lt;/font&gt;&lt;div style=&quot;font-size: 11px;&quot;&gt;&lt;font style=&quot;font-size: 11px;&quot;&gt;Notification Module&lt;/font&gt;&lt;/div&gt;" style="shape=umlLifeline;perimeter=lifelinePerimeter;whiteSpace=wrap;html=1;container=0;dropTarget=0;collapsible=0;recursiveResize=0;outlineConnect=0;portConstraint=eastwest;newEdgeStyle={&quot;edgeStyle&quot;:&quot;elbowEdgeStyle&quot;,&quot;elbow&quot;:&quot;vertical&quot;,&quot;curved&quot;:0,&quot;rounded&quot;:0};" parent="1" vertex="1">
          <mxGeometry x="550" y="270" width="100" height="1330" as="geometry" />
        </mxCell>
        <mxCell id="2QtAlBOzLZGLUuP-KgHX-100" value="" style="html=1;points=[];perimeter=orthogonalPerimeter;outlineConnect=0;targetShapes=umlLifeline;portConstraint=eastwest;newEdgeStyle={&quot;edgeStyle&quot;:&quot;elbowEdgeStyle&quot;,&quot;elbow&quot;:&quot;vertical&quot;,&quot;curved&quot;:0,&quot;rounded&quot;:0};" parent="2QtAlBOzLZGLUuP-KgHX-12" vertex="1">
          <mxGeometry x="45" y="60" width="10" height="60" as="geometry" />
        </mxCell>
        <mxCell id="2QtAlBOzLZGLUuP-KgHX-15" value="&lt;div&gt;&lt;font style=&quot;font-size: 11px;&quot;&gt;&amp;lt;&amp;lt;actor&amp;gt;&amp;gt;&amp;nbsp;&lt;/font&gt;&lt;/div&gt;&lt;div&gt;&lt;font style=&quot;font-size: 11px;&quot;&gt;PatientDB: Database&lt;/font&gt;&lt;/div&gt;" style="shape=umlLifeline;perimeter=lifelinePerimeter;whiteSpace=wrap;html=1;container=0;dropTarget=0;collapsible=0;recursiveResize=0;outlineConnect=0;portConstraint=eastwest;newEdgeStyle={&quot;edgeStyle&quot;:&quot;elbowEdgeStyle&quot;,&quot;elbow&quot;:&quot;vertical&quot;,&quot;curved&quot;:0,&quot;rounded&quot;:0};" parent="1" vertex="1">
          <mxGeometry x="712" y="270" width="110" height="1330" as="geometry" />
        </mxCell>
        <mxCell id="2QtAlBOzLZGLUuP-KgHX-16" value="" style="html=1;points=[];perimeter=orthogonalPerimeter;outlineConnect=0;targetShapes=umlLifeline;portConstraint=eastwest;newEdgeStyle={&quot;edgeStyle&quot;:&quot;elbowEdgeStyle&quot;,&quot;elbow&quot;:&quot;vertical&quot;,&quot;curved&quot;:0,&quot;rounded&quot;:0};" parent="2QtAlBOzLZGLUuP-KgHX-15" vertex="1">
          <mxGeometry x="51" y="267" width="10" height="30" as="geometry" />
        </mxCell>
        <mxCell id="2QtAlBOzLZGLUuP-KgHX-30" value="" style="html=1;points=[];perimeter=orthogonalPerimeter;outlineConnect=0;targetShapes=umlLifeline;portConstraint=eastwest;newEdgeStyle={&quot;edgeStyle&quot;:&quot;elbowEdgeStyle&quot;,&quot;elbow&quot;:&quot;vertical&quot;,&quot;curved&quot;:0,&quot;rounded&quot;:0};" parent="2QtAlBOzLZGLUuP-KgHX-15" vertex="1">
          <mxGeometry x="51" y="1204" width="10" height="30" as="geometry" />
        </mxCell>
        <mxCell id="2QtAlBOzLZGLUuP-KgHX-64" value="" style="html=1;points=[];perimeter=orthogonalPerimeter;outlineConnect=0;targetShapes=umlLifeline;portConstraint=eastwest;newEdgeStyle={&quot;edgeStyle&quot;:&quot;elbowEdgeStyle&quot;,&quot;elbow&quot;:&quot;vertical&quot;,&quot;curved&quot;:0,&quot;rounded&quot;:0};" parent="2QtAlBOzLZGLUuP-KgHX-15" vertex="1">
          <mxGeometry x="51" y="673" width="10" height="30" as="geometry" />
        </mxCell>
        <mxCell id="2QtAlBOzLZGLUuP-KgHX-93" value="" style="html=1;points=[];perimeter=orthogonalPerimeter;outlineConnect=0;targetShapes=umlLifeline;portConstraint=eastwest;newEdgeStyle={&quot;edgeStyle&quot;:&quot;elbowEdgeStyle&quot;,&quot;elbow&quot;:&quot;vertical&quot;,&quot;curved&quot;:0,&quot;rounded&quot;:0};" parent="2QtAlBOzLZGLUuP-KgHX-15" vertex="1">
          <mxGeometry x="50" y="944" width="10" height="30" as="geometry" />
        </mxCell>
        <mxCell id="2QtAlBOzLZGLUuP-KgHX-22" value="redirect(triagePage: PageUI)" style="html=1;verticalAlign=bottom;endArrow=block;edgeStyle=elbowEdgeStyle;elbow=vertical;curved=0;rounded=0;" parent="1" edge="1">
          <mxGeometry y="-19" relative="1" as="geometry">
            <mxPoint x="291" y="529" as="sourcePoint" />
            <Array as="points">
              <mxPoint x="376" y="529" />
            </Array>
            <mxPoint x="431" y="529" as="targetPoint" />
            <mxPoint as="offset" />
          </mxGeometry>
        </mxCell>
        <mxCell id="2QtAlBOzLZGLUuP-KgHX-23" value="displayPage(triageResultPage: PageUI)" style="html=1;verticalAlign=bottom;endArrow=block;edgeStyle=elbowEdgeStyle;elbow=horizontal;curved=0;rounded=0;" parent="1" edge="1">
          <mxGeometry x="-0.0449" y="20" relative="1" as="geometry">
            <mxPoint x="432" y="579" as="sourcePoint" />
            <Array as="points" />
            <mxPoint x="97" y="579" as="targetPoint" />
            <mxPoint as="offset" />
          </mxGeometry>
        </mxCell>
        <mxCell id="2QtAlBOzLZGLUuP-KgHX-25" value="getTriageResult(patient: PatientId)" style="html=1;verticalAlign=bottom;endArrow=block;edgeStyle=elbowEdgeStyle;elbow=horizontal;curved=0;rounded=0;" parent="1" edge="1">
          <mxGeometry x="0.0323" relative="1" as="geometry">
            <mxPoint x="450" y="540" as="sourcePoint" />
            <Array as="points">
              <mxPoint x="535" y="541" />
            </Array>
            <mxPoint x="760" y="540" as="targetPoint" />
            <mxPoint as="offset" />
          </mxGeometry>
        </mxCell>
        <mxCell id="2QtAlBOzLZGLUuP-KgHX-26" value="Patient&#39;s triage summary result info" style="html=1;verticalAlign=bottom;endArrow=none;edgeStyle=elbowEdgeStyle;elbow=horizontal;curved=0;rounded=0;startArrow=open;startFill=0;endFill=0;dashed=1;" parent="1" edge="1">
          <mxGeometry x="0.0323" relative="1" as="geometry">
            <mxPoint x="450" y="567" as="sourcePoint" />
            <Array as="points">
              <mxPoint x="535" y="568" />
            </Array>
            <mxPoint x="760" y="567" as="targetPoint" />
            <mxPoint as="offset" />
          </mxGeometry>
        </mxCell>
        <mxCell id="2QtAlBOzLZGLUuP-KgHX-40" value="User Login to the system" style="strokeWidth=1;shadow=0;dashed=0;align=center;html=1;shape=mxgraph.mockup.containers.marginRect2;rectMarginTop=32;strokeColor=#666666;gradientColor=none;whiteSpace=wrap;" parent="1" vertex="1">
          <mxGeometry x="80" y="419" width="220" height="110" as="geometry" />
        </mxCell>
        <mxCell id="2QtAlBOzLZGLUuP-KgHX-41" value="&lt;font style=&quot;font-size: 12px;&quot;&gt;Ref&lt;/font&gt;" style="strokeColor=inherit;fillColor=inherit;gradientColor=inherit;strokeWidth=1;shadow=0;dashed=0;align=center;html=1;shape=mxgraph.mockup.containers.rrect;rSize=0;fontSize=17;fontColor=#666666;gradientColor=none;" parent="2QtAlBOzLZGLUuP-KgHX-40" vertex="1">
          <mxGeometry width="40" height="20" relative="1" as="geometry">
            <mxPoint x="6" y="4" as="offset" />
          </mxGeometry>
        </mxCell>
        <mxCell id="2QtAlBOzLZGLUuP-KgHX-42" value="" style="strokeWidth=1;shadow=0;dashed=0;align=center;html=1;shape=mxgraph.mockup.containers.topButton;rSize=5;strokeColor=#008cff;fillColor=#008cff;gradientColor=none;resizeWidth=1;movable=0;deletable=1;" parent="2QtAlBOzLZGLUuP-KgHX-40" vertex="1">
          <mxGeometry width="220" height="7" relative="1" as="geometry">
            <mxPoint y="25" as="offset" />
          </mxGeometry>
        </mxCell>
        <mxCell id="2QtAlBOzLZGLUuP-KgHX-45" value="getPatientHealthAndLocationInfo(patientId: PatientId)" style="html=1;verticalAlign=bottom;endArrow=block;edgeStyle=elbowEdgeStyle;elbow=vertical;curved=0;rounded=0;" parent="1" edge="1">
          <mxGeometry x="0.0323" relative="1" as="geometry">
            <mxPoint x="450" y="943" as="sourcePoint" />
            <Array as="points">
              <mxPoint x="535" y="944" />
            </Array>
            <mxPoint x="760" y="943" as="targetPoint" />
            <mxPoint as="offset" />
          </mxGeometry>
        </mxCell>
        <mxCell id="2QtAlBOzLZGLUuP-KgHX-20" value="TriageResultPage: PageUI" style="shape=umlLifeline;perimeter=lifelinePerimeter;whiteSpace=wrap;html=1;container=0;dropTarget=0;collapsible=0;recursiveResize=0;outlineConnect=0;portConstraint=eastwest;newEdgeStyle={&quot;edgeStyle&quot;:&quot;elbowEdgeStyle&quot;,&quot;elbow&quot;:&quot;vertical&quot;,&quot;curved&quot;:0,&quot;rounded&quot;:0};" parent="1" vertex="1">
          <mxGeometry x="389" y="270" width="100" height="1330" as="geometry" />
        </mxCell>
        <mxCell id="2QtAlBOzLZGLUuP-KgHX-21" value="" style="html=1;points=[];perimeter=orthogonalPerimeter;outlineConnect=0;targetShapes=umlLifeline;portConstraint=eastwest;newEdgeStyle={&quot;edgeStyle&quot;:&quot;elbowEdgeStyle&quot;,&quot;elbow&quot;:&quot;vertical&quot;,&quot;curved&quot;:0,&quot;rounded&quot;:0};" parent="2QtAlBOzLZGLUuP-KgHX-20" vertex="1">
          <mxGeometry x="45" y="257" width="10" height="113" as="geometry" />
        </mxCell>
        <mxCell id="2QtAlBOzLZGLUuP-KgHX-44" value="" style="html=1;points=[];perimeter=orthogonalPerimeter;outlineConnect=0;targetShapes=umlLifeline;portConstraint=eastwest;newEdgeStyle={&quot;edgeStyle&quot;:&quot;elbowEdgeStyle&quot;,&quot;elbow&quot;:&quot;vertical&quot;,&quot;curved&quot;:0,&quot;rounded&quot;:0};" parent="2QtAlBOzLZGLUuP-KgHX-20" vertex="1">
          <mxGeometry x="46" y="412" width="10" height="78" as="geometry" />
        </mxCell>
        <mxCell id="2QtAlBOzLZGLUuP-KgHX-63" value="" style="html=1;points=[];perimeter=orthogonalPerimeter;outlineConnect=0;targetShapes=umlLifeline;portConstraint=eastwest;newEdgeStyle={&quot;edgeStyle&quot;:&quot;elbowEdgeStyle&quot;,&quot;elbow&quot;:&quot;vertical&quot;,&quot;curved&quot;:0,&quot;rounded&quot;:0};" parent="2QtAlBOzLZGLUuP-KgHX-20" vertex="1">
          <mxGeometry x="45" y="630" width="10" height="170" as="geometry" />
        </mxCell>
        <mxCell id="2QtAlBOzLZGLUuP-KgHX-96" value="" style="html=1;points=[];perimeter=orthogonalPerimeter;outlineConnect=0;targetShapes=umlLifeline;portConstraint=eastwest;newEdgeStyle={&quot;edgeStyle&quot;:&quot;elbowEdgeStyle&quot;,&quot;elbow&quot;:&quot;vertical&quot;,&quot;curved&quot;:0,&quot;rounded&quot;:0};" parent="2QtAlBOzLZGLUuP-KgHX-20" vertex="1">
          <mxGeometry x="46" y="904" width="10" height="170" as="geometry" />
        </mxCell>
        <mxCell id="2QtAlBOzLZGLUuP-KgHX-68" value="getPharmacyList(location: Location, radius: Double)" style="html=1;verticalAlign=bottom;endArrow=block;edgeStyle=elbowEdgeStyle;elbow=horizontal;curved=0;rounded=0;" parent="1" edge="1">
          <mxGeometry x="0.0323" relative="1" as="geometry">
            <mxPoint x="450" y="1005" as="sourcePoint" />
            <Array as="points">
              <mxPoint x="535" y="1006" />
            </Array>
            <mxPoint x="930" y="1005" as="targetPoint" />
            <mxPoint as="offset" />
          </mxGeometry>
        </mxCell>
        <mxCell id="2QtAlBOzLZGLUuP-KgHX-28" value="" style="html=1;points=[];perimeter=orthogonalPerimeter;outlineConnect=0;targetShapes=umlLifeline;portConstraint=eastwest;newEdgeStyle={&quot;edgeStyle&quot;:&quot;elbowEdgeStyle&quot;,&quot;elbow&quot;:&quot;vertical&quot;,&quot;curved&quot;:0,&quot;rounded&quot;:0};" parent="1" vertex="1">
          <mxGeometry x="434" y="1448.31" width="10" height="60" as="geometry" />
        </mxCell>
        <mxCell id="2QtAlBOzLZGLUuP-KgHX-34" value="displayTriageDetail()" style="html=1;verticalAlign=bottom;endArrow=block;edgeStyle=elbowEdgeStyle;elbow=vertical;curved=0;rounded=0;" parent="1" edge="1">
          <mxGeometry x="-0.0449" y="20" relative="1" as="geometry">
            <mxPoint x="430" y="1509.3899999999999" as="sourcePoint" />
            <Array as="points" />
            <mxPoint x="95" y="1509.3899999999999" as="targetPoint" />
            <mxPoint as="offset" />
          </mxGeometry>
        </mxCell>
        <mxCell id="2QtAlBOzLZGLUuP-KgHX-29" value="Click &quot;View Detail Triage Result&quot;" style="html=1;verticalAlign=bottom;endArrow=none;edgeStyle=elbowEdgeStyle;elbow=vertical;curved=0;rounded=0;endFill=0;startArrow=block;startFill=1;" parent="1" edge="1">
          <mxGeometry x="-0.0449" y="20" relative="1" as="geometry">
            <mxPoint x="432" y="1449.3899999999999" as="sourcePoint" />
            <Array as="points" />
            <mxPoint x="97" y="1449.3899999999999" as="targetPoint" />
            <mxPoint as="offset" />
          </mxGeometry>
        </mxCell>
        <mxCell id="2QtAlBOzLZGLUuP-KgHX-32" value="getTriageDetailResult(patient: PatientId)" style="html=1;verticalAlign=bottom;endArrow=block;edgeStyle=elbowEdgeStyle;elbow=horizontal;curved=0;rounded=0;" parent="1" edge="1">
          <mxGeometry x="0.0323" relative="1" as="geometry">
            <mxPoint x="448.5" y="1474.3899999999999" as="sourcePoint" />
            <Array as="points">
              <mxPoint x="533.5" y="1475.3899999999999" />
            </Array>
            <mxPoint x="758.5" y="1474.3899999999999" as="targetPoint" />
            <mxPoint as="offset" />
          </mxGeometry>
        </mxCell>
        <mxCell id="2QtAlBOzLZGLUuP-KgHX-31" value="Patient&#39;s triage detail result info" style="html=1;verticalAlign=bottom;endArrow=none;edgeStyle=elbowEdgeStyle;elbow=horizontal;curved=0;rounded=0;startArrow=open;startFill=0;endFill=0;dashed=1;" parent="1" edge="1">
          <mxGeometry x="0.0323" relative="1" as="geometry">
            <mxPoint x="447.5" y="1503.3899999999999" as="sourcePoint" />
            <Array as="points">
              <mxPoint x="532.5" y="1504.3899999999999" />
            </Array>
            <mxPoint x="757.5" y="1503.3899999999999" as="targetPoint" />
            <mxPoint as="offset" />
          </mxGeometry>
        </mxCell>
        <mxCell id="2QtAlBOzLZGLUuP-KgHX-89" value="getPatientHealthAndLocationInfo(patientId: PatientId)" style="html=1;verticalAlign=bottom;endArrow=block;edgeStyle=elbowEdgeStyle;elbow=horizontal;curved=0;rounded=0;" parent="1" edge="1">
          <mxGeometry x="0.0323" relative="1" as="geometry">
            <mxPoint x="449" y="1217" as="sourcePoint" />
            <Array as="points">
              <mxPoint x="534" y="1218" />
            </Array>
            <mxPoint x="759" y="1217" as="targetPoint" />
            <mxPoint as="offset" />
          </mxGeometry>
        </mxCell>
        <mxCell id="2QtAlBOzLZGLUuP-KgHX-90" value="getNurseAndClinicianLists(location: Location, radius: Double)" style="html=1;verticalAlign=bottom;endArrow=block;edgeStyle=elbowEdgeStyle;elbow=horizontal;curved=0;rounded=0;" parent="1" edge="1">
          <mxGeometry x="0.0323" relative="1" as="geometry">
            <mxPoint x="452" y="1279" as="sourcePoint" />
            <Array as="points">
              <mxPoint x="537" y="1280" />
            </Array>
            <mxPoint x="932" y="1279" as="targetPoint" />
            <mxPoint as="offset" />
          </mxGeometry>
        </mxCell>
        <mxCell id="2QtAlBOzLZGLUuP-KgHX-46" value="&lt;br&gt;&lt;div&gt;&lt;br&gt;&lt;/div&gt;&lt;div&gt;Check ER current capacity and Assign patient to ER queue &lt;/div&gt;" style="strokeWidth=1;shadow=0;dashed=0;align=center;html=1;shape=mxgraph.mockup.containers.marginRect2;rectMarginTop=32;strokeColor=#666666;gradientColor=none;whiteSpace=wrap;fillColor=#FFFFFF;" parent="1" vertex="1">
          <mxGeometry x="430" y="754" width="510" height="70" as="geometry" />
        </mxCell>
        <mxCell id="2QtAlBOzLZGLUuP-KgHX-47" value="&lt;font style=&quot;font-size: 12px;&quot;&gt;Ref&lt;/font&gt;" style="strokeColor=inherit;fillColor=inherit;gradientColor=inherit;strokeWidth=1;shadow=0;dashed=0;align=center;html=1;shape=mxgraph.mockup.containers.rrect;rSize=0;fontSize=17;fontColor=#666666;gradientColor=none;" parent="2QtAlBOzLZGLUuP-KgHX-46" vertex="1">
          <mxGeometry width="40" height="20" relative="1" as="geometry">
            <mxPoint x="6" y="4" as="offset" />
          </mxGeometry>
        </mxCell>
        <mxCell id="2QtAlBOzLZGLUuP-KgHX-48" value="" style="strokeWidth=1;shadow=0;dashed=0;align=center;html=1;shape=mxgraph.mockup.containers.topButton;rSize=5;strokeColor=#008cff;fillColor=#008cff;gradientColor=none;resizeWidth=1;movable=0;deletable=1;" parent="2QtAlBOzLZGLUuP-KgHX-46" vertex="1">
          <mxGeometry width="509.99999999999994" height="7" relative="1" as="geometry">
            <mxPoint y="25" as="offset" />
          </mxGeometry>
        </mxCell>
        <mxCell id="2QtAlBOzLZGLUuP-KgHX-59" value="redirect(ErQueueAssignPage: PageUI)" style="html=1;verticalAlign=bottom;endArrow=block;edgeStyle=elbowEdgeStyle;elbow=horizontal;curved=0;rounded=0;" parent="2QtAlBOzLZGLUuP-KgHX-46" edge="1">
          <mxGeometry x="0.1099" y="-55" relative="1" as="geometry">
            <mxPoint x="18" y="-23" as="sourcePoint" />
            <Array as="points">
              <mxPoint x="103" y="-22" />
            </Array>
            <mxPoint x="18" y="-2" as="targetPoint" />
            <mxPoint x="55" y="55" as="offset" />
          </mxGeometry>
        </mxCell>
        <mxCell id="2QtAlBOzLZGLUuP-KgHX-98" value="Patient&#39;s info" style="html=1;verticalAlign=bottom;endArrow=none;edgeStyle=elbowEdgeStyle;elbow=horizontal;curved=0;rounded=0;startArrow=open;startFill=0;endFill=0;dashed=1;" parent="1" edge="1">
          <mxGeometry x="0.0323" relative="1" as="geometry">
            <mxPoint x="447" y="1245" as="sourcePoint" />
            <Array as="points">
              <mxPoint x="532" y="1246" />
            </Array>
            <mxPoint x="757" y="1245" as="targetPoint" />
            <mxPoint as="offset" />
          </mxGeometry>
        </mxCell>
        <mxCell id="2QtAlBOzLZGLUuP-KgHX-65" value="Patient&#39;s info" style="html=1;verticalAlign=bottom;endArrow=none;edgeStyle=elbowEdgeStyle;elbow=horizontal;curved=0;rounded=0;startArrow=open;startFill=0;endFill=0;dashed=1;" parent="1" edge="1">
          <mxGeometry x="0.0323" relative="1" as="geometry">
            <mxPoint x="450" y="973" as="sourcePoint" />
            <Array as="points">
              <mxPoint x="535" y="974" />
            </Array>
            <mxPoint x="760" y="973" as="targetPoint" />
            <mxPoint as="offset" />
          </mxGeometry>
        </mxCell>
        <mxCell id="2QtAlBOzLZGLUuP-KgHX-99" value="sendNotificationMessage(patient: PatientID, method: NotificationMethod)" style="html=1;verticalAlign=bottom;endArrow=block;edgeStyle=elbowEdgeStyle;elbow=vertical;curved=0;rounded=0;" parent="1" edge="1">
          <mxGeometry x="-0.0631" y="18" relative="1" as="geometry">
            <mxPoint x="590" y="332" as="sourcePoint" />
            <Array as="points" />
            <mxPoint x="99" y="332" as="targetPoint" />
            <mxPoint as="offset" />
          </mxGeometry>
        </mxCell>
        <mxCell id="2QtAlBOzLZGLUuP-KgHX-101" value="Click on link attached in the notification" style="html=1;verticalAlign=bottom;endArrow=none;edgeStyle=elbowEdgeStyle;elbow=vertical;curved=0;rounded=0;startArrow=block;startFill=1;endFill=0;" parent="1" edge="1">
          <mxGeometry x="-0.0631" y="18" relative="1" as="geometry">
            <mxPoint x="591" y="354" as="sourcePoint" />
            <Array as="points" />
            <mxPoint x="100" y="354" as="targetPoint" />
            <mxPoint as="offset" />
          </mxGeometry>
        </mxCell>
        <mxCell id="2QtAlBOzLZGLUuP-KgHX-103" value="redirect(loginPage: PageUI)" style="html=1;verticalAlign=bottom;endArrow=block;edgeStyle=elbowEdgeStyle;elbow=vertical;curved=0;rounded=0;" parent="1" edge="1">
          <mxGeometry x="-0.0449" y="20" relative="1" as="geometry">
            <mxPoint x="591" y="389" as="sourcePoint" />
            <Array as="points" />
            <mxPoint x="299" y="389" as="targetPoint" />
            <mxPoint as="offset" />
          </mxGeometry>
        </mxCell>
        <mxCell id="2QtAlBOzLZGLUuP-KgHX-104" value="displayPage(loginPage: PageUI)" style="html=1;verticalAlign=bottom;endArrow=block;edgeStyle=elbowEdgeStyle;elbow=vertical;curved=0;rounded=0;" parent="1" edge="1">
          <mxGeometry x="-0.0449" y="20" relative="1" as="geometry">
            <mxPoint x="280" y="410" as="sourcePoint" />
            <Array as="points" />
            <mxPoint x="97" y="410" as="targetPoint" />
            <mxPoint as="offset" />
          </mxGeometry>
        </mxCell>
        <mxCell id="2QtAlBOzLZGLUuP-KgHX-36" value="Opt" style="strokeColor=inherit;fillColor=inherit;gradientColor=inherit;strokeWidth=1;shadow=0;dashed=0;align=center;html=1;shape=mxgraph.mockup.containers.rrect;rSize=0;fontSize=17;fontColor=#666666;gradientColor=none;" parent="1" vertex="1">
          <mxGeometry x="20" y="615" width="60" height="25" as="geometry">
            <mxPoint x="10" as="offset" />
          </mxGeometry>
        </mxCell>
        <mxCell id="2QtAlBOzLZGLUuP-KgHX-39" value="" style="strokeWidth=1;shadow=0;dashed=0;align=center;html=1;shape=mxgraph.mockup.containers.topButton;rSize=5;strokeColor=#008cff;fillColor=#008cff;gradientColor=none;resizeWidth=1;movable=0;deletable=1;" parent="1" vertex="1">
          <mxGeometry x="10" y="640" width="1009.9999999999999" height="7" as="geometry">
            <mxPoint y="25" as="offset" />
          </mxGeometry>
        </mxCell>
        <mxCell id="2QtAlBOzLZGLUuP-KgHX-52" value="sendERNotification()" style="html=1;verticalAlign=bottom;endArrow=block;edgeStyle=elbowEdgeStyle;elbow=vertical;curved=0;rounded=0;" parent="1" edge="1">
          <mxGeometry x="-0.0449" y="20" relative="1" as="geometry">
            <mxPoint x="432" y="682.9704519774011" as="sourcePoint" />
            <Array as="points" />
            <mxPoint x="97" y="682.9704519774011" as="targetPoint" />
            <mxPoint as="offset" />
          </mxGeometry>
        </mxCell>
        <mxCell id="2QtAlBOzLZGLUuP-KgHX-53" value="Click button to get medication and pharmacy suggestions" style="html=1;verticalAlign=bottom;endArrow=none;edgeStyle=elbowEdgeStyle;elbow=vertical;curved=0;rounded=0;startArrow=block;startFill=1;endFill=0;" parent="1" edge="1">
          <mxGeometry x="-0.0449" y="20" relative="1" as="geometry">
            <mxPoint x="433" y="933.5433898305084" as="sourcePoint" />
            <Array as="points" />
            <mxPoint x="98" y="933.5433898305084" as="targetPoint" />
            <mxPoint as="offset" />
          </mxGeometry>
        </mxCell>
        <mxCell id="2QtAlBOzLZGLUuP-KgHX-62" value="sendMedicationNotification()" style="html=1;verticalAlign=bottom;endArrow=block;edgeStyle=elbowEdgeStyle;elbow=vertical;curved=0;rounded=0;" parent="1" edge="1">
          <mxGeometry x="-0.0449" y="20" relative="1" as="geometry">
            <mxPoint x="432" y="900.9977401129943" as="sourcePoint" />
            <Array as="points" />
            <mxPoint x="97" y="900.9977401129943" as="targetPoint" />
            <mxPoint as="offset" />
          </mxGeometry>
        </mxCell>
        <mxCell id="2QtAlBOzLZGLUuP-KgHX-70" value="Pharmacy info list based on patient&#39;s info" style="html=1;verticalAlign=bottom;endArrow=none;edgeStyle=elbowEdgeStyle;elbow=horizontal;curved=0;rounded=0;startArrow=open;startFill=0;endFill=0;dashed=1;" parent="1" edge="1">
          <mxGeometry x="0.0323" relative="1" as="geometry">
            <mxPoint x="448" y="1034.0027118644068" as="sourcePoint" />
            <Array as="points">
              <mxPoint x="533" y="1035.3077966101696" />
            </Array>
            <mxPoint x="928" y="1034.0027118644068" as="targetPoint" />
            <mxPoint as="offset" />
          </mxGeometry>
        </mxCell>
        <mxCell id="2QtAlBOzLZGLUuP-KgHX-73" value="displayMedAndPharmacyList(medList: Medication[])" style="html=1;verticalAlign=bottom;endArrow=block;edgeStyle=elbowEdgeStyle;elbow=vertical;curved=0;rounded=0;" parent="1" edge="1">
          <mxGeometry x="-0.0328" y="-10" relative="1" as="geometry">
            <mxPoint x="432" y="1067.9136723163842" as="sourcePoint" />
            <Array as="points" />
            <mxPoint x="97" y="1067.9136723163842" as="targetPoint" />
            <mxPoint x="-1" as="offset" />
          </mxGeometry>
        </mxCell>
        <mxCell id="2QtAlBOzLZGLUuP-KgHX-76" value="Click button to book ER" style="html=1;verticalAlign=bottom;endArrow=none;edgeStyle=elbowEdgeStyle;elbow=vertical;curved=0;rounded=0;startArrow=block;startFill=1;endFill=0;" parent="1" edge="1">
          <mxGeometry x="-0.0449" y="20" relative="1" as="geometry">
            <mxPoint x="434" y="719.0033898305085" as="sourcePoint" />
            <Array as="points" />
            <mxPoint x="99" y="719.0033898305085" as="targetPoint" />
            <mxPoint as="offset" />
          </mxGeometry>
        </mxCell>
        <mxCell id="2QtAlBOzLZGLUuP-KgHX-86" value="displayNurseClinicianList(nurseClinicianList: HealthWorker[])" style="html=1;verticalAlign=bottom;endArrow=block;edgeStyle=elbowEdgeStyle;elbow=vertical;curved=0;rounded=0;" parent="1" edge="1">
          <mxGeometry x="-0.0208" y="24" relative="1" as="geometry">
            <mxPoint x="434" y="1341.9136723163842" as="sourcePoint" />
            <Array as="points" />
            <mxPoint x="99" y="1341.9136723163842" as="targetPoint" />
            <mxPoint as="offset" />
          </mxGeometry>
        </mxCell>
        <mxCell id="2QtAlBOzLZGLUuP-KgHX-87" value="Click button to get nurse/clinician contact suggestions" style="html=1;verticalAlign=bottom;endArrow=none;edgeStyle=elbowEdgeStyle;elbow=vertical;curved=0;rounded=0;startArrow=block;startFill=1;endFill=0;" parent="1" edge="1">
          <mxGeometry x="-0.0149" y="23" relative="1" as="geometry">
            <mxPoint x="435" y="1207.5433898305084" as="sourcePoint" />
            <Array as="points" />
            <mxPoint x="100" y="1207.5433898305084" as="targetPoint" />
            <mxPoint as="offset" />
          </mxGeometry>
        </mxCell>
        <mxCell id="2QtAlBOzLZGLUuP-KgHX-88" value="sendContactNurseClinicianNotification()" style="html=1;verticalAlign=bottom;endArrow=block;edgeStyle=elbowEdgeStyle;elbow=vertical;curved=0;rounded=0;" parent="1" edge="1">
          <mxGeometry x="-0.0449" y="20" relative="1" as="geometry">
            <mxPoint x="434" y="1174.9977401129943" as="sourcePoint" />
            <Array as="points" />
            <mxPoint x="99" y="1174.9977401129943" as="targetPoint" />
            <mxPoint as="offset" />
          </mxGeometry>
        </mxCell>
        <mxCell id="2QtAlBOzLZGLUuP-KgHX-94" value="" style="html=1;points=[];perimeter=orthogonalPerimeter;outlineConnect=0;targetShapes=umlLifeline;portConstraint=eastwest;newEdgeStyle={&quot;edgeStyle&quot;:&quot;elbowEdgeStyle&quot;,&quot;elbow&quot;:&quot;vertical&quot;,&quot;curved&quot;:0,&quot;rounded&quot;:0};" parent="1" vertex="1">
          <mxGeometry x="435" y="1174" width="10" height="170" as="geometry" />
        </mxCell>
        <mxCell id="2QtAlBOzLZGLUuP-KgHX-91" value="Available nurses and clinic based on patient&#39;s info" style="html=1;verticalAlign=bottom;endArrow=none;edgeStyle=elbowEdgeStyle;elbow=horizontal;curved=0;rounded=0;startArrow=open;startFill=0;endFill=0;dashed=1;" parent="1" edge="1">
          <mxGeometry x="0.0323" relative="1" as="geometry">
            <mxPoint x="450" y="1310.0027118644068" as="sourcePoint" />
            <Array as="points">
              <mxPoint x="535" y="1311.3077966101696" />
            </Array>
            <mxPoint x="930" y="1310.0027118644068" as="targetPoint" />
            <mxPoint as="offset" />
          </mxGeometry>
        </mxCell>
        <mxCell id="JDQupVAsGFA57i-t1DUa-10" value="" style="rounded=0;whiteSpace=wrap;html=1;" vertex="1" parent="1">
          <mxGeometry x="2820" y="280" width="120" height="60" as="geometry" />
        </mxCell>
        <mxCell id="JDQupVAsGFA57i-t1DUa-40" value="UC-04.1" style="text;html=1;strokeColor=none;fillColor=none;align=center;verticalAlign=middle;whiteSpace=wrap;rounded=0;" vertex="1" parent="1">
          <mxGeometry x="20" y="794" width="60" height="30" as="geometry" />
        </mxCell>
        <mxCell id="JDQupVAsGFA57i-t1DUa-42" value="UC-04.3" style="text;html=1;strokeColor=none;fillColor=none;align=center;verticalAlign=middle;whiteSpace=wrap;rounded=0;" vertex="1" parent="1">
          <mxGeometry x="20" y="1338" width="60" height="30" as="geometry" />
        </mxCell>
      </root>
    </mxGraphModel>
  </diagram>
</mxfile>
